<?xml version="1.0" standalone="no"?>
<!DOCTYPE svg PUBLIC "-//W3C//DTD SVG 20010904//EN"
 "http://www.w3.org/TR/2001/REC-SVG-20010904/DTD/svg10.dtd">
<svg version="1.0" xmlns="http://www.w3.org/2000/svg"
 width="229.000000pt" height="229.000000pt" viewBox="0 0 229.000000 229.000000"
 preserveAspectRatio="xMidYMid meet">
<metadata>
Created by potrace 1.14, written by Peter Selinger 2001-2017
</metadata>
<g transform="translate(0.000000,229.000000) scale(0.100000,-0.100000)"
fill="#000000" stroke="none">
<path d="M813 2282 c-30 -3 -43 -21 -205 -268 -95 -145 -233 -355 -306 -465
-72 -111 -132 -205 -132 -210 0 -5 32 -9 70 -9 l70 0 0 -660 0 -660 835 0 835
0 0 660 0 660 70 0 c39 0 70 4 70 9 0 8 -538 897 -563 930 -11 14 -55 16 -362
16 -192 0 -364 -1 -382 -3z m786 -121 c34 -55 61 -104 61 -109 0 -5 -198 -9
-500 -9 -275 0 -500 2 -500 5 0 3 30 52 68 109 l67 103 372 0 371 0 61 -99z
m144 -237 c32 -54 54 -100 50 -103 -4 -3 -295 -4 -645 -1 l-637 5 62 97 62 97
525 1 525 0 58 -96z m143 -237 c38 -61 70 -113 72 -117 1 -4 -362 -7 -807 -7
-626 0 -809 3 -803 12 4 6 38 59 75 117 l68 105 664 0 663 0 68 -110z m135
-219 c23 -40 48 -82 55 -93 13 -20 12 -20 -927 -20 -802 0 -939 2 -934 14 3 7
28 49 57 92 l51 79 827 0 828 0 43 -72z m-61 -788 l0 -650 -260 0 -260 0 0
409 c0 318 -3 410 -12 413 -11 3 -450 2 -498 -1 -14 -1 -16 -50 -15 -411 l0
-410 -292 0 -293 0 0 650 0 650 815 0 815 0 0 -650z m-540 -250 l0 -400 -239
0 c-219 0 -239 1 -243 18 -3 14 -3 772 1 780 0 1 109 2 241 2 l240 0 0 -400z"/>
<path d="M1251 523 c-42 -34 -31 -114 18 -131 51 -18 93 26 84 88 -4 29 -37
60 -63 60 -10 0 -27 -8 -39 -17z"/>
</g>
</svg>
